<svg width="48" height="48" viewBox="0 0 48 48" fill="none" xmlns="http://www.w3.org/2000/svg">
<path d="M2 7.99999V20M2 20H14M2 20L11.28 11.28C14.0418 8.52283 17.6249 6.73793 21.4894 6.19422C25.3538 5.65051 29.2903 6.37746 32.7057 8.26552C36.1211 10.1536 38.8303 13.1005 40.4252 16.6622C42.0202 20.2239 42.4144 24.2075 41.5484 28.0127C40.6825 31.8179 38.6034 35.2387 35.6243 37.7595C32.6452 40.2803 28.9275 41.7647 25.0314 41.9889C21.1354 42.2132 17.272 41.1651 14.0233 39.0027C10.7747 36.8404 8.31679 33.6807 7.02 30" stroke="#B3B3B3" stroke-width="4" stroke-linecap="round" stroke-linejoin="round"/>
</svg>
